# xmcd
#
# Track frame offsets: 
#        150
#        10329
#        24166
#        35830
#        49381
#        62098
#        75138
#        89290
#        103211
#        114055
#        126298
#        139976
#        151725
#        163608
#        175409
#        189228
#        202778
#        217673
#        228682
#        242797
#        256464
#        269820
#        284070
#
# Disc length: 3931 seconds
#
# Revision: 0
# Processed by: cddbd v1.5.2PL0 Copyright (c) Steve Scherf et al.
# Submitted via: ExactAudioCopy v0.99pb5
#
DISCID=410f5917
DTITLE=Etta James - Tough Woman - Disc 2
DYEAR=2011
DGENRE=Blues
TTITLE0=If It Ain't One Thing
TTITLE1=I Hope Your Satisfied
TTITLE2=My Heart Cries
TTITLE3=If I Can't Have You
TTITLE4=Spoonful
TTITLE5=It's A Crying Shame
TTITLE6=Let Me Know
TTITLE7=Plum Nuts
TTITLE8=Nobody But You
TTITLE9=I'll Dry My Tears
TTITLE10=Seven Day Fool
TTITLE11=In My Diary
TTITLE12=You Can Count On Me
TTITLE13=Anything To Say You're Mine
TTITLE14=My Dearest Darling
TTITLE15=Trust In Me
TTITLE16=A Sunday Kind Of Love
TTITLE17=Tough Mary
TTITLE18=I Just Want To Make Love To You
TTITLE19=At Last
TTITLE20=All I Could Do Was Cry
TTITLE21=Stormy Weather
TTITLE22=Girl Of My Dreams
EXTD=
EXTT0=
EXTT1=
EXTT2=
EXTT3=
EXTT4=
EXTT5=
EXTT6=
EXTT7=
EXTT8=
EXTT9=
EXTT10=
EXTT11=
EXTT12=
EXTT13=
EXTT14=
EXTT15=
EXTT16=
EXTT17=
EXTT18=
EXTT19=
EXTT20=
EXTT21=
EXTT22=
PLAYORDER=
